<svg id="Calque_1" data-name="Calque 1" xmlns="http://www.w3.org/2000/svg" viewBox="0 0 20.34 131.46"><path d="M28,25.92c.82-2.3,1.68-4.31,2.23-6.4.42-1.56.4-3.24.68-4.85.08-.44.5-1.14.82-1.17.8-.08.87.64.84,1.28a24.9,24.9,0,0,1-3.25,11.51,1.56,1.56,0,0,0,0,1.82A23.91,23.91,0,0,1,32,44.86a27.93,27.93,0,0,1-2.77,7.6,1.7,1.7,0,0,0-.07,1.39c4.5,8.13,4.46,16.28.12,24.45a1.64,1.64,0,0,0,0,1.85,23.76,23.76,0,0,1,3,14.87,22.49,22.49,0,0,1-3,9.15,1.88,1.88,0,0,0,.05,2.17A23.74,23.74,0,0,1,32.35,121a22.83,22.83,0,0,1-3.09,9.36,1.47,1.47,0,0,0,0,1.74,24.15,24.15,0,0,1,3.22,10.79c0,.28.14.61,0,.83a9.91,9.91,0,0,1-.84,1.23c-.27-.38-.77-.75-.79-1.15a23.65,23.65,0,0,0-1.83-8.5c-.36-.82-.8-1.61-1.26-2.52-1.1,1-2,2-3.06,2.87a10.44,10.44,0,0,1-6.57,2.68,5,5,0,0,1-5.07-3.22,9.44,9.44,0,0,1-.19-7.44c1.24-3.23,4.16-4.32,7.68-3.16A15.46,15.46,0,0,1,27,128.92c.62.67.94.7,1.36-.15a22.92,22.92,0,0,0,.75-19.37c-.34-.87-.82-1.68-1.23-2.52-1.51,1.27-2.82,2.56-4.3,3.58C21.34,112,18.9,112.9,16.12,112a5.09,5.09,0,0,1-3.3-3.51,9.63,9.63,0,0,1,.48-7.65,5.48,5.48,0,0,1,5.93-2.69A14.59,14.59,0,0,1,27,102.94c.68.73.94.63,1.34-.18a23.13,23.13,0,0,0,1.07-18.59c-.4-1.13-1-2.19-1.5-3.28l-.52-.2a28.2,28.2,0,0,1-2,2.36,11.63,11.63,0,0,1-6.13,3.23,5.52,5.52,0,0,1-6.61-4.37A9.47,9.47,0,0,1,13,75.6c1.38-3.26,4.31-4.33,7.71-3.1a15.89,15.89,0,0,1,6.46,4.57c.15.17.34.31.69.64.46-.94.93-1.75,1.27-2.61a23,23,0,0,0-.79-19.48c-.38-.77-.73-.75-1.3-.12a15.28,15.28,0,0,1-5.93,4.27c-3.17,1.18-6.63.71-8-2.88a9.43,9.43,0,0,1,.63-8.7c1.14-1.89,3.91-2.59,6.21-1.95A15.31,15.31,0,0,1,27.11,51a3.59,3.59,0,0,0,.32.36.64.64,0,0,0,.2.11c4.12-3.26,4.14-19,0-22.6-.9.84-1.75,1.74-2.7,2.51a11.16,11.16,0,0,1-5.71,2.78c-3.13.4-5.18-.61-6.33-3.58a9,9,0,0,1,.15-7.21c1.3-2.83,3.57-3.89,6.63-3.2a14.35,14.35,0,0,1,7.14,4.49Zm-14.12,1.7a26.06,26.06,0,0,0,.66,2.67,3.9,3.9,0,0,0,4.4,2.45,13.43,13.43,0,0,0,7.3-4.83.87.87,0,0,0,0-1.33,14.45,14.45,0,0,0-5.63-4.41A4.83,4.83,0,0,0,16.47,22C14.28,23,14,25.07,13.85,27.62Zm-.1,103.53.19,0a6.14,6.14,0,0,0,0,1c.47,3.5,2.17,5.3,5.8,4.38a12.15,12.15,0,0,0,6.59-4.81.94.94,0,0,0,0-.92c-2-2.57-4.45-4.6-7.85-5.08a3.65,3.65,0,0,0-4,2.45C14.16,129.14,14,130.16,13.75,131.15ZM19,110.71c2.82-.3,5.34-2.36,7.42-5.08.15-.19,0-.76-.17-1a12.87,12.87,0,0,0-6.39-4.69c-2.71-.87-4.69.09-5.46,2.79a9.19,9.19,0,0,0-.31,4.09C14.51,109.14,15.44,110.76,19,110.71Zm-5.17-57.4c.2.87.36,1.89.67,2.85a3.93,3.93,0,0,0,4.65,2.55,13,13,0,0,0,7.17-4.93,1.17,1.17,0,0,0,0-1.09,12.53,12.53,0,0,0-5.68-4.53c-2.34-.89-5.43-1.08-6.35,2.76C14.05,51.65,14,52.39,13.79,53.31Zm5.09,31.41c2.89-.38,5.45-2.39,7.54-5.13a.9.9,0,0,0-.1-.83c-1.93-2.47-4.23-4.42-7.42-5a3.77,3.77,0,0,0-4.18,1.84A7.88,7.88,0,0,0,14,80.93C14.57,83.55,16,84.74,18.88,84.72Z" transform="translate(-12.22 -13.49)"/></svg>