<?xml version="1.0" encoding="iso-8859-1"?>
<!-- Generator: Adobe Illustrator 19.0.0, SVG Export Plug-In . SVG Version: 6.00 Build 0)  -->
<svg version="1.1" id="Capa_1" xmlns="http://www.w3.org/2000/svg" xmlns:xlink="http://www.w3.org/1999/xlink" x="0px" y="0px"
	 viewBox="0 0 478.52 478.52" style="enable-background:new 0 0 478.52 478.52;" xml:space="preserve">
<g>
	<g>
		<path d="M429.236,125.05c-0.712-1.01-1.483-1.977-2.309-2.896l-0.138-0.152c-11.063-12.265-29.748-13.833-42.7-3.584
			L193.072,270.018c-5.71-13.099-15.709-23.864-28.351-30.523l150.238-188.83c10.708-13.554,8.401-33.222-5.153-43.93
			c-13.554-10.708-33.222-8.401-43.93,5.153c-0.313,0.397-0.617,0.801-0.911,1.212L103.227,241.248
			c-29.701,17.839-39.318,56.379-21.478,86.08c0.198,0.33,0.399,0.658,0.603,0.984l-19.183,19.183
			c-26.127,26.127-26.128,68.487-0.001,94.614c26.127,26.127,68.487,26.128,94.614,0.001l60.854-60.854
			c13.631-13.631,35.731-13.631,49.362,0c13.631,13.631,13.631,35.731,0,49.362l-30.8,30.8c-3.922,3.888-3.949,10.22-0.061,14.142
			s10.22,3.949,14.142,0.061c0.02-0.02,0.04-0.04,0.061-0.061l30.8-30.8c21.442-21.441,21.442-56.205,0-77.646
			s-56.205-21.442-77.646,0l-60.854,60.854c-18.316,18.316-48.013,18.316-66.329,0c-18.316-18.316-18.316-48.013,0-66.329
			l18.258-18.259c24.932,20.601,61.44,18.869,84.31-4c0.388-0.389,0.755-0.792,1.132-1.189l240.67-169.561
			C435.801,158.681,439.184,139.17,429.236,125.05z M281.281,24.67c3.601-5.081,10.639-6.281,15.72-2.68
			c0.473,0.335,0.92,0.707,1.336,1.111c4.175,4.031,4.594,10.578,0.967,15.109L144.373,232.947c-3.42-0.478-6.874-0.676-10.327-0.59
			L281.281,24.67z M165.737,325.235c-7.996,8.04-18.875,12.546-30.214,12.515c-23.599,0-42.729-19.13-42.729-42.729
			c0-23.599,19.13-42.729,42.729-42.729c23.599,0,42.729,19.13,42.729,42.729C178.252,306.354,173.75,317.222,165.737,325.235z
			 M414.873,144.324c-0.344,3.208-2.063,6.11-4.711,7.954L197.876,301.841c0.247-2.265,0.373-4.542,0.376-6.82
			c0-1.172-0.04-2.337-0.1-3.5l198.373-157.442c4.667-3.693,11.4-3.13,15.389,1.287l0.137,0.154
			C414.223,137.908,415.252,141.12,414.873,144.324z"/>
	</g>
</g>
<g>
	<g>
		<path d="M158.304,272.836c-0.099-0.1-0.198-0.199-0.298-0.298c-12.417-12.405-32.54-12.396-44.945,0.021
			c-12.405,12.417-12.396,32.54,0.021,44.945c12.409,12.397,32.515,12.397,44.924,0
			C170.423,305.252,170.556,285.253,158.304,272.836z M143.859,303.362c-4.607,4.61-12.078,4.612-16.688,0.006
			c-4.61-4.607-4.612-12.078-0.006-16.688c4.607-4.61,12.078-4.612,16.688-0.006c0.002,0.002,0.004,0.004,0.006,0.006
			C148.458,291.29,148.458,298.753,143.859,303.362z"/>
	</g>
</g>
<g>
</g>
<g>
</g>
<g>
</g>
<g>
</g>
<g>
</g>
<g>
</g>
<g>
</g>
<g>
</g>
<g>
</g>
<g>
</g>
<g>
</g>
<g>
</g>
<g>
</g>
<g>
</g>
<g>
</g>
</svg>
