<?xml version="1.0" encoding="iso-8859-1"?>
<!-- Generator: Adobe Illustrator 19.0.0, SVG Export Plug-In . SVG Version: 6.00 Build 0)  -->
<svg version="1.1" id="Layer_1" xmlns="http://www.w3.org/2000/svg" xmlns:xlink="http://www.w3.org/1999/xlink" x="0px" y="0px"
	 viewBox="0 0 512.002 512.002" style="enable-background:new 0 0 512.002 512.002;" xml:space="preserve">
<g>
	<g>
		<g>
			<path d="M256.001,76.8c4.71,0,8.533-3.814,8.533-8.533s-3.823-8.533-8.533-8.533c-4.71,0-8.533,3.814-8.533,8.533
				S251.29,76.8,256.001,76.8z"/>
			<path d="M238.934,102.4c4.71,0,8.533-3.814,8.533-8.533c0-4.719-3.823-8.533-8.533-8.533c-4.71,0-8.533,3.814-8.533,8.533
				C230.401,98.586,234.224,102.4,238.934,102.4z"/>
			<path d="M273.067,102.4c4.71,0,8.533-3.814,8.533-8.533c0-4.719-3.823-8.533-8.533-8.533s-8.533,3.814-8.533,8.533
				C264.534,98.586,268.357,102.4,273.067,102.4z"/>
			<path d="M256.001,110.933c-4.71,0-8.533,3.814-8.533,8.533S251.29,128,256.001,128c4.71,0,8.533-3.814,8.533-8.533
				S260.711,110.933,256.001,110.933z"/>
			<path d="M238.934,136.533c-4.71,0-8.533,3.814-8.533,8.533s3.823,8.533,8.533,8.533c4.71,0,8.533-3.814,8.533-8.533
				S243.645,136.533,238.934,136.533z"/>
			<path d="M273.067,153.6c4.71,0,8.533-3.814,8.533-8.533s-3.823-8.533-8.533-8.533s-8.533,3.814-8.533,8.533
				S268.357,153.6,273.067,153.6z"/>
			<path d="M256.001,179.2c4.71,0,8.533-3.814,8.533-8.533s-3.823-8.533-8.533-8.533c-4.71,0-8.533,3.814-8.533,8.533
				S251.29,179.2,256.001,179.2z"/>
			<path d="M238.934,187.733c-4.71,0-8.533,3.814-8.533,8.533s3.823,8.533,8.533,8.533c4.71,0,8.533-3.814,8.533-8.533
				S243.645,187.733,238.934,187.733z"/>
			<path d="M273.067,187.733c-4.71,0-8.533,3.814-8.533,8.533s3.823,8.533,8.533,8.533s8.533-3.814,8.533-8.533
				S277.778,187.733,273.067,187.733z"/>
			<path d="M290.134,162.133c-4.71,0-8.533,3.814-8.533,8.533s3.823,8.533,8.533,8.533c4.71,0,8.533-3.814,8.533-8.533
				S294.845,162.133,290.134,162.133z"/>
			<path d="M290.134,128c4.71,0,8.533-3.814,8.533-8.533s-3.823-8.533-8.533-8.533c-4.71,0-8.533,3.814-8.533,8.533
				S285.424,128,290.134,128z"/>
			<path d="M221.867,128c4.71,0,8.533-3.814,8.533-8.533s-3.823-8.533-8.533-8.533c-4.71,0-8.533,3.814-8.533,8.533
				S217.157,128,221.867,128z"/>
			<path d="M221.867,162.133c-4.71,0-8.533,3.814-8.533,8.533s3.823,8.533,8.533,8.533c4.71,0,8.533-3.814,8.533-8.533
				S226.578,162.133,221.867,162.133z"/>
			<path d="M256.001,213.333c-4.71,0-8.533,3.814-8.533,8.533s3.823,8.533,8.533,8.533c4.71,0,8.533-3.814,8.533-8.533
				S260.711,213.333,256.001,213.333z"/>
			<path d="M238.934,238.933c-4.71,0-8.533,3.814-8.533,8.533s3.823,8.533,8.533,8.533c4.71,0,8.533-3.814,8.533-8.533
				S243.645,238.933,238.934,238.933z"/>
			<path d="M273.067,238.933c-4.71,0-8.533,3.814-8.533,8.533s3.823,8.533,8.533,8.533s8.533-3.814,8.533-8.533
				S277.778,238.933,273.067,238.933z"/>
			<path d="M256.001,34.133c-36.844,0-68.267,58.056-68.267,128s31.422,128,68.267,128s68.267-58.056,68.267-128
				S292.845,34.133,256.001,34.133z M256.001,273.067c-14.772,0-30.269-17.745-40.292-45.302c1.554,1.622,3.737,2.635,6.159,2.635
				c4.71,0,8.533-3.814,8.533-8.533s-3.823-8.533-8.533-8.533c-4.385,0-7.997,3.307-8.476,7.57
				c-1.698-5.428-3.188-11.175-4.429-17.191c2.606-1.459,4.371-4.242,4.371-7.446c0-4.182-3.004-7.647-6.966-8.383
				c-1.015-8.251-1.568-16.869-1.568-25.75c0-2.876,0.058-5.724,0.171-8.542c4.631-0.092,8.363-3.864,8.363-8.525
				c0-4.195-3.023-7.668-7.003-8.389c5.991-49.289,28.572-85.478,49.67-85.478c21.097,0,43.679,36.189,49.67,85.478
				c-3.98,0.721-7.003,4.194-7.003,8.389c0,4.661,3.732,8.433,8.363,8.525c0.112,2.818,0.171,5.666,0.171,8.542
				c0,8.881-0.553,17.499-1.568,25.75c-3.961,0.736-6.966,4.202-6.966,8.383c0,3.204,1.765,5.987,4.371,7.446
				c-1.241,6.016-2.731,11.762-4.429,17.191c-0.479-4.264-4.091-7.57-8.476-7.57c-4.71,0-8.533,3.814-8.533,8.533
				s3.823,8.533,8.533,8.533c2.422,0,4.605-1.014,6.159-2.635C286.27,255.321,270.772,273.067,256.001,273.067z"/>
			<path d="M358.401,162.133C358.401,73.197,313.669,0,256.001,0c-57.668,0-102.4,73.197-102.4,162.133
				c0,74.454,31.539,138.846,76.8,156.98v12.845c-5.675,28.657-8.533,57.804-8.533,87.019v57.438
				c0,18.565,14.052,34.582,32.313,35.538c19.594,1.019,35.954-14.556,35.954-34.088v-58.889c0-29.215-2.858-58.362-8.533-87.019
				v-12.845C326.862,300.979,358.401,236.587,358.401,162.133z M270.608,304.9c-3.606,1.085-6.074,4.406-6.074,8.171V332.8
				l0.166,1.674c5.565,27.823,8.368,56.13,8.368,84.505v58.889c0,9.768-8.178,17.555-17.997,17.044
				c-8.886-0.465-16.136-8.729-16.136-18.495v-57.438c0-28.374,2.803-56.682,8.368-84.505l0.166-1.674v-19.729
				c0-3.765-2.468-7.086-6.074-8.171c-39.975-12.034-70.727-71.748-70.727-142.766c0-80.723,39.321-145.067,85.333-145.067
				s85.333,64.343,85.333,145.067C341.334,233.151,310.583,292.866,270.608,304.9z"/>
		</g>
	</g>
</g>
<g>
</g>
<g>
</g>
<g>
</g>
<g>
</g>
<g>
</g>
<g>
</g>
<g>
</g>
<g>
</g>
<g>
</g>
<g>
</g>
<g>
</g>
<g>
</g>
<g>
</g>
<g>
</g>
<g>
</g>
</svg>
