<?xml version="1.0"?>
<svg xmlns="http://www.w3.org/2000/svg" viewBox="0 0 64 64" width="512" height="512"><g id="comb-hairbrush-toothbrush-toothpaste"><path d="M28,8a1,1,0,0,0,1-1V5a3.009,3.009,0,0,0-3-3H5A3.009,3.009,0,0,0,2,5V56.83a5.143,5.143,0,0,0,4.51,5.15c.16.01.32.02.49.02a5,5,0,0,0,5-5V45a1,1,0,0,1,1-1H26a3.009,3.009,0,0,0,3-3V39a1,1,0,0,0-1-1H15V36H28V34H15V32H28V30H15V28H28V26H15V24H28V22H15V20H28V18H15V16H28V14H15V12H28V10H15V8ZM14,6a1,1,0,0,0-1,1V39a1,1,0,0,0,1,1H27v1a1,1,0,0,1-1,1H13a3.009,3.009,0,0,0-3,3V57a3.03,3.03,0,0,1-.98,2.22,2.939,2.939,0,0,1-2.31.76A3.114,3.114,0,0,1,4,56.83V5A1,1,0,0,1,5,4H26a1,1,0,0,1,1,1V6Z"/><circle cx="7" cy="57" r="2"/><rect x="6" y="6" width="2" height="16"/><rect x="6" y="24" width="2" height="2"/><path d="M46,4V2H36a3.009,3.009,0,0,0-3,3V57.5a4.5,4.5,0,0,0,9,0V34.77a10.974,10.974,0,0,0-1.57-5.66l-.15-.25A9,9,0,0,1,39,24.23V17h1a1.988,1.988,0,0,0,1.72-1H46V14H42V13h4V11H42V10h4V8H42V7h4V5H42V4ZM40,15H38a1,1,0,0,0-1,1v8.23a10.974,10.974,0,0,0,1.57,5.66l.15.25A9,9,0,0,1,40,34.77V57.5a2.5,2.5,0,0,1-5,0V5a1,1,0,0,1,1-1h4Z"/><path d="M61,28.97a.761.761,0,0,0-.03-.21l-1-4A1,1,0,0,0,59,24H57.85l-.86-5.16A1,1,0,0,0,56,18H52a1,1,0,0,0-.99.84L50.15,24H49a1,1,0,0,0-.97.76l-1,4a.761.761,0,0,0-.03.21l-1,32a1,1,0,0,0,.28.73A1.022,1.022,0,0,0,47,62H61a1.022,1.022,0,0,0,.72-.3,1,1,0,0,0,.28-.73ZM52.85,20h2.3l.67,4H52.18Zm-3.07,6h8.44l.5,2H49.28Zm-.81,4H59.03l.78,25H48.19Zm-.94,30,.1-3H59.87l.1,3Z"/></g></svg>
