<svg id="Calque_1" data-name="Calque 1" xmlns="http://www.w3.org/2000/svg" viewBox="0 0 10.82 129.89"><path d="M27.32,66.21a4.22,4.22,0,0,1,.39,5.67,1.12,1.12,0,0,0,.05,1,4.07,4.07,0,0,1,0,5,1.16,1.16,0,0,0,0,1.07,4.08,4.08,0,0,1,.05,5,1.23,1.23,0,0,0-.07,1.1,4.13,4.13,0,0,1,0,5.1,1.2,1.2,0,0,0,0,1.09,4.19,4.19,0,0,1,0,5,1.33,1.33,0,0,0,.06,1.18,3.74,3.74,0,0,1,0,4.65,1,1,0,0,0,0,1.45,3.73,3.73,0,0,1,0,4.65,1,1,0,0,0,0,1.45,3.73,3.73,0,0,1,0,4.76.94.94,0,0,0,0,1.33,3.78,3.78,0,0,1,0,4.77,1,1,0,0,0,0,1.34,4,4,0,0,1,0,4.9,1.32,1.32,0,0,0,0,1.18,4.11,4.11,0,0,1,0,4.91,1.31,1.31,0,0,0,0,1.16,4.07,4.07,0,0,1,0,5,1.48,1.48,0,0,0,0,1.1c.24.78.65,1.52.82,2.31.05.25-.43.61-.67.92a6,6,0,0,1-.78-.73,3.54,3.54,0,0,1-.36-.87c-.35-1-.91-1.27-1.92-.73a7.39,7.39,0,0,1-4.64.82c-1-.15-2-.63-2.17-1.74A2.58,2.58,0,0,1,18.7,138a4.93,4.93,0,0,1,2.83-.64,15.87,15.87,0,0,1,3.54.9,1.64,1.64,0,0,0,2-1.71c.05-1.38-1-2-2.29-1.56-1.6.55-3.25,1.17-5,.57-1.27-.44-1.95-1.26-1.85-2.29a2.38,2.38,0,0,1,2.39-2.09,21.26,21.26,0,0,1,4.54.78c.66.19,1.12.52,1.65-.15a2.2,2.2,0,0,0,.05-2.85c-.52-.67-1.11-.31-1.73-.19a29.51,29.51,0,0,1-4.55.65,2.1,2.1,0,0,1-2.35-2.15,2.33,2.33,0,0,1,2.53-2.17,19.08,19.08,0,0,1,4.3.74c1.34.39,2.32-.15,2.34-1.57a1.54,1.54,0,0,0-2.15-1.63,17.61,17.61,0,0,1-3.94.82,4,4,0,0,1-2.58-1c-1.21-1.11-.32-3.11,1.42-3.39a10.07,10.07,0,0,1,5.28.66,1.64,1.64,0,0,0,1.41-.26,2,2,0,0,0,0-2.71,1.68,1.68,0,0,0-1.43-.28,9.4,9.4,0,0,1-5.26.68,2.14,2.14,0,0,1-1.92-2.1,2.1,2.1,0,0,1,1.76-2.1c1.85-.53,3.54.08,5.26.58.43.12,1.17.2,1.34,0a3,3,0,0,0,.68-1.89c-.06-.57-.66-1.11-1.11-1.58-.09-.09-.57.16-.85.29a8.68,8.68,0,0,1-4.78.8A2.34,2.34,0,0,1,17.9,109,2.13,2.13,0,0,1,20,106.76a21.76,21.76,0,0,1,4.44.56c.74.13,1.46.82,2.14,0a2.14,2.14,0,0,0-.25-3,1.39,1.39,0,0,0-1.23-.09,8.88,8.88,0,0,1-4.77.88c-1.05-.12-2.05-.56-2.24-1.66-.11-.68.11-1.85.57-2.1a6.7,6.7,0,0,1,3.26-.77,11,11,0,0,1,3.17.94,1.63,1.63,0,0,0,2-1.8c-.13-1.31-1-1.75-2.22-1.36-1.84.58-3.7,1.3-5.68.36a2.08,2.08,0,0,1,.19-3.87c1.86-.71,3.64-.19,5.36.45.93.35,1.56.48,2-.54s.16-2.4-.61-2.74a1.52,1.52,0,0,0-.92,0,18.73,18.73,0,0,1-3.2.86,7.7,7.7,0,0,1-3.11-.47,1.74,1.74,0,0,1-1-2.11,2.39,2.39,0,0,1,2.49-1.86c1.49.1,2.95.53,4.43.78.46.08,1.21.26,1.35.06a3.15,3.15,0,0,0,.75-2c-.22-1.5-1-1.75-2.39-1.15-1.68.71-3.39,1.19-5.2.43a2.05,2.05,0,0,1-1.44-2.33A2,2,0,0,1,20,82.42a22.6,22.6,0,0,1,4.7.62c1.31.33,2,.2,2.23-1.14a2.88,2.88,0,0,0-.64-1.9c-.19-.24-1-.19-1.43,0-1.76.58-3.5,1.1-5.37.52a2,2,0,0,1-1.59-2.11,1.86,1.86,0,0,1,1.81-2,22.45,22.45,0,0,1,5,.57c1.33.32,2.31-.18,2.3-1.58s-1-1.84-2.28-1.54a25.11,25.11,0,0,1-5.05.55,1.84,1.84,0,0,1-1.82-1.88,2,2,0,0,1,1.49-2.18c1.69-.68,3.27-.2,4.87.36.71.24,1.54.86,2.19,0a2.09,2.09,0,0,0,.2-2.64c-.41-.61-.77-1-1.62-.51a8.14,8.14,0,0,1-5,.83,2.36,2.36,0,0,1-2.16-2.18,2.07,2.07,0,0,1,2-2.11,28.45,28.45,0,0,1,4.58.53c.75.12,1.49.74,2.12-.22a2,2,0,0,0-.36-2.87c-.28-.21-.84-.11-1.25,0a39.73,39.73,0,0,1-4.41.82A2.41,2.41,0,0,1,18.13,61a2,2,0,0,1,1.13-2.83c1.94-.82,3.77-.17,5.57.45.66.23,1.18.46,1.68-.19a2.09,2.09,0,0,0,0-2.73c-.49-.7-1.06-.49-1.78-.23-1.59.58-3.2,1.27-5,.63-1.36-.49-2-1.3-1.88-2.38a2.37,2.37,0,0,1,2.49-2c1.49.09,3,.51,4.44.75.48.07,1.27.24,1.42,0a3.07,3.07,0,0,0,.68-2c-.29-1.52-.94-1.59-2.43-1.11a14.26,14.26,0,0,1-4.29.69,2.22,2.22,0,1,1,.2-4.42,17.67,17.67,0,0,1,4.22.65c1.39.41,2,.34,2.27-1a3.07,3.07,0,0,0-.63-2c-.15-.22-1-.13-1.42,0-1.77.51-3.5,1.1-5.39.48a2.11,2.11,0,0,1,.19-4.12,7.87,7.87,0,0,1,5.25.66c1.23.59,1.68-.14,2.06-1.18.27-.76-.37-2.17-1-2.29-.28,0-.59.17-.9.21a47.57,47.57,0,0,1-5,.65,2,2,0,0,1-2.07-1.91,2.15,2.15,0,0,1,1.62-2.22c1.53-.62,3-.15,4.44.26a6.07,6.07,0,0,1,1,.36c1.24.63,1.63-.22,2-1.13.26-.69-.3-2.18-.94-2.36a1.68,1.68,0,0,0-1,.21,9.08,9.08,0,0,1-4.65.83,2.43,2.43,0,0,1-2.46-2.28,2.07,2.07,0,0,1,2.31-2.07,20.68,20.68,0,0,1,4.55.68c1.24.32,1.69.23,2.16-1.05.29-.77-.25-2.28-1-2.44a2.26,2.26,0,0,0-1,.25c-1.92.66-3.83,1.43-5.89.42a2,2,0,0,1-1.17-2,2,2,0,0,1,1.45-1.85c1.92-.71,3.72-.13,5.47.52.67.25,1.15.45,1.66-.18a2.1,2.1,0,0,0,0-2.83c-.53-.64-1.07-.4-1.71-.14a7.64,7.64,0,0,1-4.87.62c-1.36-.35-2-1-2-2.14A2.27,2.27,0,0,1,20.16,15a12.74,12.74,0,0,1,4.3.68c1.47.55,1.77.74,2.59-1.23.12-.28.17-.64.38-.83a.69.69,0,0,1,1.15.59,6.26,6.26,0,0,1-.78,2.31,1.06,1.06,0,0,0,0,1.45,3.86,3.86,0,0,1,0,4.77,1.31,1.31,0,0,0,0,1.17,3.92,3.92,0,0,1,0,4.88.94.94,0,0,0,0,1.35,3.79,3.79,0,0,1,0,4.76,1,1,0,0,0,0,1.44,3.69,3.69,0,0,1,0,4.66,1,1,0,0,0,0,1.44,3.89,3.89,0,0,1,0,4.78,1.29,1.29,0,0,0,0,1.18,4.16,4.16,0,0,1,0,5,1.35,1.35,0,0,0,0,1.19,4.06,4.06,0,0,1,0,4.9c-.17.25-.34.76-.21.91C29.17,62.38,28.87,64.28,27.32,66.21Zm-7.76,6.14a3,3,0,0,0,4.05-.12C21.41,71.3,20.49,71.33,19.56,72.35Zm4.3-48.82c-1.44-1.19-3.65-1.14-4.35,0C20.92,24.45,22.28,23.92,23.86,23.53Zm-.19,109.84,0-.4c-1.15-.05-2.3-.13-3.46-.13a.78.78,0,0,0-.59.47c-.05.15.22.47.42.59A4.14,4.14,0,0,0,23.67,133.37Zm.14-54.73a3.48,3.48,0,0,0-4.37-.18C20.84,79.72,22.26,78.94,23.81,78.64ZM19.5,96.89a3.89,3.89,0,0,0,4.09-.06A3.05,3.05,0,0,0,19.5,96.89Zm4.16-36.72a4.34,4.34,0,0,0-3.74-.56c-.15.1-.36.35-.33.43s.3.52.5.56A5,5,0,0,0,23.66,60.17ZM19.5,35.59c1.33,1,3.38.87,4.07-.2C20.59,34.73,20.59,34.73,19.5,35.59Zm0,18.46a3.54,3.54,0,0,0,4.09-.13C21.85,53,20.41,53,19.52,54.05Zm4.21-36.9c-2-.89-3.43-.83-4.16.12A3.44,3.44,0,0,0,23.73,17.15ZM19.51,139.56a3.46,3.46,0,0,0,4.12,0A3.38,3.38,0,0,0,19.51,139.56Zm0-18.33c1.41,1.18,2.76.38,4.16.12A3,3,0,0,0,19.5,121.23Zm0-30.65a3.07,3.07,0,0,0,4.2,0C22.24,90.11,20.89,89.56,19.47,90.58Zm4.25,12.34a3.25,3.25,0,0,0-4.24,0C20.86,103.92,22.21,103.44,23.72,102.92ZM23.64,42.1l0-.54a5.3,5.3,0,0,0-3.41-.43c-.26.07-.47.35-.7.53.25.21.5.6.75.6C21.42,42.27,22.53,42.16,23.64,42.1Zm.1,72.72c-1.52-.28-2.91-.91-4.35.15A3.28,3.28,0,0,0,23.74,114.82Zm0-30.2c-1.48-1-3.43-.94-4.25.07C20.91,85.62,22.26,85.27,23.74,84.62Zm0,42.76c-1.52-1-3.46-1-4.21.09C20.92,128.31,22.24,128,23.73,127.38Zm0-18.53c-2.3-.89-3.37-.84-4.16.14A3.69,3.69,0,0,0,23.74,108.85ZM23.6,29.42c-1.68-.92-3.28-.87-4,.11A3.5,3.5,0,0,0,23.6,29.42Zm.2,18.49c-1.4-1-3.55-1-4.27,0C20.93,49,22.3,48.46,23.8,47.91Zm0,18.21c-1.53-.47-2.9-1.15-4.33,0A3.82,3.82,0,0,0,23.82,66.12Z" transform="translate(-17.84 -13.42)"/></svg>